<svg width="533" height="620" viewBox="0 0 533 620" fill="none" xmlns="http://www.w3.org/2000/svg">
<g id="revenue-graph-monochrome 1">
<g id="list">
<path id="Vector" d="M246.218 0V296.236H254.901V360.421H459.516V0H246.218Z" fill="#F3F3F3"/>
<path id="Vector_2" d="M459.516 0H246.218V23.2138H459.516V0Z" fill="#DFDFDF"/>
<path id="Vector_3" d="M474.608 52.4519H295.476V111.822H474.608V52.4519Z" fill="#DFDFDF"/>
<path id="Vector_4" d="M466.085 63.9426H305.936V69.3211H466.085V63.9426Z" fill="#F9F9F9"/>
<path id="Vector_5" d="M466.085 76.7559H305.936V82.1344H466.085V76.7559Z" fill="#F9F9F9"/>
<path id="Vector_6" d="M466.085 89.5745H305.936V94.953H466.085V89.5745Z" fill="#F9F9F9"/>
<path id="Vector_7" d="M474.608 135.682H295.476V195.052H474.608V135.682Z" fill="#DFDFDF"/>
<path id="Vector_8" d="M319.337 183.045C327.731 183.045 334.536 175.129 334.536 165.364C334.536 155.6 327.731 147.684 319.337 147.684C310.942 147.684 304.137 155.6 304.137 165.364C304.137 175.129 310.942 183.045 319.337 183.045Z" fill="#F9F9F9"/>
<path id="Vector_9" d="M462.367 147.684H345.751V164.786H462.367V147.684Z" fill="#F9F9F9"/>
<path id="Vector_10" d="M462.367 170.583H345.751V176.865H462.367V170.583Z" fill="#F9F9F9"/>
<path id="Vector_11" d="M435.313 220.803H267.067V317.089H435.313V220.803Z" fill="white"/>
</g>
<path id="Vector_12" d="M254.901 528.199V296.215H191.039V528.199H254.901ZM213.958 308.466V297.822L219.288 297.569V302.467L230.357 308.466H213.958Z" stroke="black" stroke-width="2.5" stroke-miterlimit="10" stroke-linecap="round"/>
<path id="Vector_13" d="M172.384 528.198V373.069H108.522V528.198H172.384ZM133.097 390.874V380.23L138.427 379.977V384.875L149.478 390.874H133.097Z" stroke="black" stroke-width="2.5" stroke-miterlimit="10" stroke-linecap="round"/>
<path id="Vector_14" d="M26 528.204V439.885H89.8623V528.204" stroke="black" stroke-width="2.5" stroke-miterlimit="10" stroke-linecap="round"/>
<g id="left_foot">
<path id="Vector_15" d="M182.431 199.785C186.873 199.785 222.508 205.639 238.098 214.954C235.953 227.101 221.935 298.654 221.935 298.654H213.207C213.207 298.654 209.921 238.416 209.21 238.917C204.488 241.743 185.749 248.873 165.721 249.219" fill="black"/>
<path id="Vector_16" d="M213.958 297.822V308.465H230.343L219.275 302.467V297.569" stroke="black" stroke-width="2.5" stroke-linecap="round" stroke-linejoin="round"/>
</g>
<g id="left_hand">
<path id="Vector_17" d="M193.257 124.17C196.447 126.817 201.429 131.883 202.509 134.01C215.165 115.717 236.007 97.2617 237.712 95.1294C239.416 92.997 239.947 81.1176 239.947 78.5198C239.947 75.922 243.029 69 246 69V100.146C246 100.146 211.124 157 205.382 157C202.421 157 190.165 151.047 184 147.188" stroke="black" stroke-width="2.5" stroke-linecap="round" stroke-linejoin="round"/>
</g>
<path id="left_handle" d="M172.473 111.414C181.356 112.902 193.016 119.645 193.038 122.326C193.064 125.426 187.29 137.242 182.755 142.109" stroke="black" stroke-width="2.5" stroke-miterlimit="10" stroke-linecap="round"/>
<g id="body">
<g id="Vector_18">
<path d="M165.086 104.041C188.969 118.146 187.055 195.636 182.431 199.785C177.341 204.347 135.563 206.569 131.743 199.785C129.966 196.623 128.696 175.181 130.934 153.161" fill="white"/>
<path d="M165.086 104.041C188.969 118.146 187.055 195.636 182.431 199.785C177.341 204.347 135.563 206.569 131.743 199.785C129.966 196.623 128.696 175.181 130.934 153.161" stroke="black" stroke-width="2.5" stroke-miterlimit="10" stroke-linecap="round"/>
</g>
<g id="Vector_19">
<path d="M142.221 111.533C144.992 107.182 148.328 104.036 152.317 102.641Z" fill="white"/>
<path d="M142.221 111.533C144.992 107.182 148.328 104.036 152.317 102.641" stroke="black" stroke-width="2.5" stroke-miterlimit="10" stroke-linecap="round"/>
</g>
</g>
<g id="right_hand">
<path id="Vector_20" d="M118.6 134.772C111.875 143.69 101.766 166.558 101.766 170.645C101.766 180.978 131.756 226.491 135.572 226.491C137.162 223.283 139.707 216.628 139.707 216.628C139.707 216.628 121.691 177.547 118.387 172.494C121.247 169.394 131.632 153.14 133.328 148.087C133.554 147.399 133.731 146.69 133.857 145.969" stroke="black" stroke-width="2.5" stroke-miterlimit="10" stroke-linecap="round"/>
</g>
<g id="right_handle">
<path id="Vector_21" d="M137.064 146.868C133.67 147.116 117.552 137.097 117.552 132.189C117.552 128.242 135.185 106.986 142.789 111.838C143.873 112.53 144.566 113.78 145.01 115.413" stroke="black" stroke-width="2.5" stroke-miterlimit="10" stroke-linecap="round"/>
</g>
<g id="head">
<path id="Vector_22" d="M180.912 59.3339C181.475 58.2417 181.77 56.9908 181.765 55.7172C181.765 51.0672 178.407 50.4576 176.879 49.0006C175.253 47.4506 175.951 42.7644 171.549 42.7644C167.605 42.7644 165.664 47.5849 163.141 49.4397C160.089 51.6872 154.102 49.8789 150.158 54.6064C148.244 56.9004 147.795 62.5476 146.605 64.6143C144.979 67.4146 142.163 68.2309 142.163 72.5038C142.163 75.0871 143.722 79.1429 145.81 80.9203" stroke="black" stroke-width="2.5" stroke-miterlimit="10" stroke-linecap="round"/>
<path id="Vector_23" d="M165.086 104.041V97.5364" stroke="black" stroke-width="2.5" stroke-miterlimit="10" stroke-linecap="round"/>
<path id="Vector_24" d="M152.317 86.0044V104.548C152.317 107.162 155.51 108.495 158.704 108.505" stroke="black" stroke-width="2.5" stroke-miterlimit="10" stroke-linecap="round"/>
<path id="Vector_25" d="M165.086 97.5364C165.594 97.5052 166.097 97.4222 166.592 97.2883C173.161 95.5058 176.666 84.9813 174.418 73.7904C174.014 71.7634 173.429 69.7911 172.673 67.9055" stroke="black" stroke-width="2.5" stroke-miterlimit="10" stroke-linecap="round"/>
<path id="Vector_26" d="M150.011 75.521C149.043 75.8462 148.209 76.5669 147.661 77.5505C147.113 78.5341 146.889 79.7147 147.029 80.8753C147.17 82.0358 147.665 83.0985 148.425 83.868C149.185 84.6374 150.159 85.0621 151.166 85.0638C151.423 85.0609 151.678 85.0315 151.93 84.976C152.054 85.3221 152.183 85.6683 152.317 86.0093" stroke="black" stroke-width="2.5" stroke-miterlimit="10" stroke-linecap="round"/>
</g>
<g id="right_foot">
<path id="Vector_27" d="M132.014 199.785V200.115C136.207 209.038 139.707 216.649 139.707 216.649C139.707 216.649 137.162 223.303 135.572 226.512C134.967 226.512 133.706 225.365 132.018 223.412V380.509H139.707L182.431 199.785C179.682 202.42 141.928 208.62 132.014 199.785Z" fill="black"/>
<path id="Vector_28" d="M133.097 380.23V390.874H149.478L138.414 384.875V379.977" stroke="black" stroke-width="2.5" stroke-linecap="round" stroke-linejoin="round"/>
</g>
</g>
</svg>
